<svg aria-hidden="true" style="position: absolute; width: 0; height: 0; overflow: hidden;" version="1.1" xmlns="http://www.w3.org/2000/svg" xmlns:xlink="http://www.w3.org/1999/xlink">
<defs>
<symbol id="icon-ribbon" viewBox="0 0 26 32">
<path fill="none" stroke="#9ca3af" style="stroke: var(--color1, #9ca3af)" stroke-linejoin="round" stroke-linecap="round" stroke-miterlimit="4" stroke-width="3.2" d="M1.6 4.8c0-1.767 1.433-3.2 3.2-3.2h16c1.767 0 3.2 1.433 3.2 3.2v25.6l-11.2-5.6-11.2 5.6v-25.6z"></path>
</symbol>
<symbol id="icon-dropdown" viewBox="0 0 53 32">
<path d="M1.562 1.562c2.083-2.083 5.46-2.083 7.542 0l17.562 17.562 17.562-17.562c2.083-2.083 5.46-2.083 7.542 0s2.083 5.46 0 7.543l-21.333 21.333c-2.083 2.083-5.46 2.083-7.542 0l-21.333-21.333c-2.083-2.083-2.083-5.46 0-7.543z"></path>
</symbol>
<symbol id="icon-checkmark" viewBox="0 0 37 32">
<path fill="none" stroke="#10b981" style="stroke: var(--color2, #10b981)" stroke-linejoin="round" stroke-linecap="round" stroke-miterlimit="4" stroke-width="5.3333" d="M3.111 18.222l8.889 8.889 22.222-22.222"></path>
</symbol>
<symbol id="icon-trash" viewBox="0 0 28 32">
<path fill="none" stroke="#9ca3af" style="stroke: var(--color1, #9ca3af)" stroke-linejoin="round" stroke-linecap="round" stroke-miterlimit="4" stroke-width="3.5556" d="M24.593 8.593l-1.285 17.989c-0.111 1.551-1.401 2.752-2.955 2.752h-12.26c-1.554 0-2.845-1.201-2.955-2.752l-1.285-17.989M11.259 14.519v8.889M17.185 14.519v8.889M18.667 8.593v-4.444c0-0.818-0.663-1.481-1.482-1.481h-5.926c-0.818 0-1.481 0.663-1.481 1.481v4.444M2.37 8.593h23.704"></path>
</symbol>
<symbol id="icon-pen" viewBox="0 0 32 32">
<path fill="#9ca3af" style="fill: var(--color1, #9ca3af)" d="M28.249 3.751v0zM7.852 29.386v1.778c0.471 0 0.924-0.187 1.257-0.521l-1.257-1.257zM2.667 29.386h-1.778c0 0.982 0.796 1.778 1.778 1.778v-1.778zM2.667 24.095l-1.257-1.257c-0.333 0.333-0.521 0.786-0.521 1.257h1.778zM24.268 5.009c0.752-0.752 1.971-0.752 2.724 0l2.514-2.514c-2.141-2.141-5.611-2.141-7.752 0l2.514 2.514zM26.991 5.009c0.752 0.752 0.752 1.972 0 2.724l2.514 2.514c2.141-2.141 2.141-5.611 0-7.752l-2.514 2.514zM26.991 7.732l-20.397 20.397 2.514 2.514 20.397-20.397-2.514-2.514zM7.852 27.608h-5.185v3.556h5.185v-3.556zM21.754 2.494l-20.344 20.344 2.514 2.514 20.344-20.344-2.514-2.514zM0.889 24.095v5.29h3.556v-5.291h-3.556zM19.531 7.231l5.238 5.238 2.514-2.514-5.238-5.238-2.514 2.514z"></path>
</symbol>
<symbol id="icon-search" viewBox="0 0 30 32">
<path fill="#9ca3af" style="fill: var(--color1, #9ca3af)" d="M11.294 4.706c-4.158 0-7.529 3.371-7.529 7.529s3.371 7.529 7.529 7.529c4.158 0 7.529-3.371 7.529-7.529s-3.371-7.529-7.529-7.529zM0 12.235c0-6.238 5.057-11.294 11.294-11.294s11.294 5.057 11.294 11.294c0 2.439-0.773 4.698-2.088 6.544l9.066 9.066c0.735 0.735 0.735 1.927 0 2.662s-1.927 0.735-2.662 0l-9.066-9.066c-1.846 1.315-4.105 2.088-6.544 2.088-6.238 0-11.294-5.057-11.294-11.294z"></path>
</symbol>
<symbol id="icon-plus" viewBox="0 0 32 32">
<path fill="none" style="fill: var(--color3, #fff)" d="M16 1.067c1.178 0 2.133 0.955 2.133 2.133v10.667h10.667c1.178 0 2.133 0.955 2.133 2.133s-0.955 2.133-2.133 2.133h-10.667v10.667c0 1.178-0.955 2.133-2.133 2.133s-2.133-0.955-2.133-2.133v-10.667h-10.667c-1.178 0-2.133-0.955-2.133-2.133s0.955-2.133 2.133-2.133h10.667v-10.667c0-1.178 0.955-2.133 2.133-2.133z"></path>
</symbol>
<symbol id="icon-contact" viewBox="0 0 26 32">
<path fill="none" stroke="#6b7280" style="stroke: var(--color4, #6b7280)" stroke-linejoin="round" stroke-linecap="round" stroke-miterlimit="4" stroke-width="3.2" d="M19.2 8c0 3.535-2.865 6.4-6.4 6.4s-6.4-2.865-6.4-6.4 2.865-6.4 6.4-6.4c3.535 0 6.4 2.865 6.4 6.4z"></path>
<path fill="none" stroke="#6b7280" style="stroke: var(--color4, #6b7280)" stroke-linejoin="round" stroke-linecap="round" stroke-miterlimit="4" stroke-width="3.2" d="M12.8 19.2c-6.186 0-11.2 5.014-11.2 11.2h22.4c0-6.186-5.014-11.2-11.2-11.2z"></path>
</symbol>
<symbol id="icon-star" viewBox="0 0 34 32">
<path fill="none" stroke="#9ca3af" style="stroke: var(--color1, #9ca3af)" stroke-linejoin="miter" stroke-linecap="butt" stroke-miterlimit="4" stroke-width="3.0476" d="M15.313 2.936c0.456-1.404 2.442-1.404 2.898 0l2.314 7.122c0.204 0.628 0.789 1.053 1.449 1.053l7.489 0c1.476 0 2.090 1.889 0.896 2.757l-6.058 4.402c-0.534 0.388-0.758 1.076-0.554 1.704l2.314 7.122c0.456 1.404-1.151 2.571-2.345 1.704l-6.059-4.402c-0.534-0.388-1.257-0.388-1.791 0l-6.059 4.402c-1.194 0.868-2.801-0.3-2.345-1.704l2.314-7.122c0.204-0.628-0.020-1.316-0.554-1.704l-6.058-4.402c-1.194-0.868-0.58-2.756 0.896-2.757l7.489-0c0.66 0 1.245-0.425 1.449-1.053l2.315-7.122z"></path>
</symbol>
<symbol id="icon-Icon" viewBox="0 0 30 32">
<path fill="#9ca3af" style="fill: var(--color1, #9ca3af)" d="M11.294 4.706c-4.158 0-7.529 3.371-7.529 7.529s3.371 7.529 7.529 7.529c4.158 0 7.529-3.371 7.529-7.529s-3.371-7.529-7.529-7.529zM0 12.235c0-6.238 5.057-11.294 11.294-11.294s11.294 5.057 11.294 11.294c0 2.439-0.773 4.698-2.088 6.544l9.066 9.066c0.735 0.735 0.735 1.927 0 2.662s-1.927 0.735-2.662 0l-9.066-9.066c-1.846 1.315-4.105 2.088-6.544 2.088-6.238 0-11.294-5.057-11.294-11.294z"></path>
</symbol>
</defs>
</svg>
